<?xml version="1.0" encoding="utf-8"?>
<!-- Generator: Adobe Illustrator 21.1.0, SVG Export Plug-In . SVG Version: 6.00 Build 0)  -->
<svg version="1.1" id="Layer_1" xmlns="http://www.w3.org/2000/svg" xmlns:xlink="http://www.w3.org/1999/xlink" x="0px" y="0px"
	 viewBox="0 0 1030.5 193.6" style="enable-background:new 0 0 1030.5 193.6;" xml:space="preserve">
<style type="text/css">
	.st0{fill:#FFFFFF;}
</style>
<g>
	<g>
		<polygon class="st0" points="0,38.4 4.8,38.4 4.8,135.7 52.6,135.7 52.6,140 0,140 		"/>
		<path class="st0" d="M113,99.3c0-20.5-9.2-30.3-22.9-30.3c-13.5,0-25.5,11.4-27.2,30.3H113z M58.2,103.6c0-24.2,15.3-39,32-39
			c16.6,0,27.7,11.8,27.7,33.8c0,1.7,0,3.1-0.4,5.2c-54.3,0-54.3,0-54.3,0c0,19.7,11.4,34.2,29.4,34.2c8.3,0,14.4-3.1,20.1-7
			c2.2,3.9,2.2,3.9,2.2,3.9c-5.7,3.5-11.8,7.4-22.9,7.4C73.7,142.2,58.2,127.4,58.2,103.6z"/>
		<path class="st0" d="M175.3,125.2c0-26.8,0-26.8,0-26.8c-32.5,3.5-43.8,10.9-43.8,23.7c0,11.4,7.9,15.7,16.6,15.7
			C157.2,137.9,165.2,133.5,175.3,125.2z M126.6,122.1c0-16.6,15.3-24.2,48.6-28.1c0-11.8-3.1-25-18.3-25c-10.5,0-19.2,5.2-24.2,8.7
			c-2.2-3.5-2.2-3.5-2.2-3.5c4.4-3.5,14.4-9.6,26.8-9.6c17,0,22.3,12.7,22.3,27.7c0,47.7,0,47.7,0,47.7c-3.9,0-3.9,0-3.9,0
			c-0.4-9.6-0.4-9.6-0.4-9.6c-0.4,0-0.4,0-0.4,0c-7.9,6.1-17,11.8-26.8,11.8C136.7,142.2,126.6,136.1,126.6,122.1z"/>
		<path class="st0" d="M203.2,66.4c3.9,0,3.9,0,3.9,0c0.9,14,0.9,14,0.9,14l0,0c5.2-9.2,12.2-15.7,21-15.7c2.6,0,4.8,0.4,7,1.3
			c-0.9,4.4-0.9,4.4-0.9,4.4c-2.6-0.9-3.9-1.3-6.6-1.3c-7,0-14.8,5.2-20.5,19.7c0,51.2,0,51.2,0,51.2c-4.8,0-4.8,0-4.8,0L203.2,66.4
			L203.2,66.4z"/>
		<path class="st0" d="M246.6,66.4c3.9,0,3.9,0,3.9,0c0.9,11.8,0.9,11.8,0.9,11.8l0,0c7.9-7.9,15.3-13.5,25.9-13.5
			c14.8,0,22,8.7,22,28.1c0,47.3,0,47.3,0,47.3c-4.4,0-4.4,0-4.4,0c0-46.9,0-46.9,0-46.9C294.9,77,289.7,69,277,69
			c-9.2,0-16.2,4.8-25.5,14.8c0,56,0,56,0,56c-4.8,0-4.8,0-4.8,0V66.4H246.6z"/>
		<path class="st0" d="M323.8,66.4c4.8,0,4.8,0,4.8,0c0,73.7,0,73.7,0,73.7c-4.8,0-4.8,0-4.8,0V66.4z M321.1,42.4
			c0-3.5,2.6-5.2,5.2-5.2s5.2,1.7,5.2,5.2c0,3.1-2.6,5.2-5.2,5.2C323.8,47.6,321.1,45.4,321.1,42.4z"/>
		<path class="st0" d="M354.5,66.4c3.9,0,3.9,0,3.9,0c0.4,11.8,0.4,11.8,0.4,11.8c0.4,0,0.4,0,0.4,0c7.4-7.9,15.3-13.5,25.5-13.5
			c15.3,0,22.4,8.7,22.4,28.1c0,47.3,0,47.3,0,47.3c-4.8,0-4.8,0-4.8,0c0-46.9,0-46.9,0-46.9c0-16.2-5.2-24.2-17.5-24.2
			c-9.2,0-16.2,4.8-25.9,14.8c0,56,0,56,0,56c-4.4,0-4.4,0-4.4,0V66.4H354.5z"/>
		<path class="st0" d="M474,90.5c0-13.1-9.2-21.4-20.1-21.4c-11.4,0-20.5,8.3-20.5,21.4s9.6,21.8,20.5,21.8
			C464.4,112.5,474,103.6,474,90.5z M484.2,151.8c0-8.7-6.1-11.8-17.5-11.8c-17,0-17,0-17,0c-0.9,0-4.8-0.4-9.2-1.3
			c-7.4,4.8-10.5,10.9-10.5,16.6c0,9.6,9.6,16.6,25.9,16.6C473.1,172.1,484.2,162,484.2,151.8z M424.9,155.9
			c0-6.6,4.4-13.5,11.4-18.3c0-0.4,0-0.4,0-0.4c-3.9-2.2-6.6-6.1-6.6-11.8c0-7,4.8-11.4,7.9-13.5c0-0.9,0-0.9,0-0.9
			c-4.8-3.9-9.2-11.4-9.2-20.1c0-14.8,10.9-25.9,25.5-25.9c3.9,0,7.4,0.9,9.2,1.7c25,0,25,0,25,0c0,4.4,0,4.4,0,4.4
			c-17.9,0-17.9,0-17.9,0c5.2,4.4,8.7,11.4,8.7,19.7c0,14.8-10.9,26.3-25,26.3c-4.4,0-9.2-1.3-12.7-3.5c-3.5,2.6-6.6,6.1-6.6,11.4
			c0,5.7,3.1,10,14.4,10c16.2,0,16.2,0,16.2,0c16.6,0,24.2,5.2,24.2,16.6c0,12.7-13.5,25-34.2,25
			C436.4,176.4,424.9,168.1,424.9,155.9z"/>
		<polygon class="st0" points="528.4,29.3 559,29.3 559,38.9 542,38.9 542,154 559,154 559,164.2 528.4,164.2 		"/>
		<path class="st0" d="M572.7,63.3c17.9,0,17.9,0,17.9,0c0,76.7,0,76.7,0,76.7c-17.9,0-17.9,0-17.9,0V63.3z M570.9,39.3
			c0-5.7,4.4-10,10.9-10s10.9,4.4,10.9,10c0,6.1-4.4,10.5-10.9,10.5S570.9,45.4,570.9,39.3z"/>
		<path class="st0" d="M609.8,63.3c14.8,0,14.8,0,14.8,0c1.3,10,1.3,10,1.3,10c0.4,0,0.4,0,0.4,0c7-6.6,14.8-12.2,25.5-12.2
			c16.6,0,23.7,11.4,23.7,30.7c0,48.2,0,48.2,0,48.2c-17.9,0-17.9,0-17.9,0c0-46,0-46,0-46c0-12.7-3.5-17-12.2-17
			c-6.6,0-10.9,3.1-17.5,9.6c0,53.4,0,53.4,0,53.4c-17.9,0-17.9,0-17.9,0V63.3H609.8z"/>
		<path class="st0" d="M708.1,131.3c0.9,0.9,1.7,1.3,2.6,1.7c0-4.8,0-4.8,0-4.8L708.1,131.3z"/>
		<path class="st0" d="M737.3,142.2c-9.6,0-19.2-3.9-26.8-9.2c-0.9-0.4-1.7-0.9-2.6-1.7c2.6-3.1,2.6-3.1,2.6-3.1
			c6.1-8.3,6.1-8.3,6.1-8.3c6.6,5.2,13.1,8.3,21,8.3c8.3,0,12.2-3.5,12.2-9.2c0-6.1-8.3-9.2-16.2-12.2c-10.5-3.9-21.8-9.6-21.8-22.4
			c0-13.5,10.9-23.3,28.1-23.3c10.9,0,19.2,4.4,25.9,9.2c-8.3,10.9-8.3,10.9-8.3,10.9c-5.2-3.9-10.9-6.6-17-6.6
			c-7.9,0-11.4,3.9-11.4,8.7c0,6.1,7.9,8.3,16.2,11.4c10.5,3.9,21.8,8.7,21.8,23.3C767.2,131.3,756.7,142.2,737.3,142.2z
			 M710.7,29.3c-30.7,0-30.7,0-30.7,0c0,10,0,10,0,10c17,0,17,0,17,0c0,115.3,0,115.3,0,115.3c-17,0-17,0-17,0c0,9.6,0,9.6,0,9.6
			c30.7,0,30.7,0,30.7,0c66.5,29.4,66.5,29.4,66.5,29.4c0-193.6,0-193.6,0-193.6L710.7,29.3z"/>
		<path class="st0" d="M708.1,131.3c0.9,0.9,1.7,1.3,2.6,1.7c0-4.8,0-4.8,0-4.8L708.1,131.3z"/>
		<path class="st0" d="M785.9,63.3c17.9,0,17.9,0,17.9,0c0,76.7,0,76.7,0,76.7c-17.9,0-17.9,0-17.9,0V63.3z M783.8,39.7
			c0-6.1,4.8-10.5,11.4-10.5c6.1,0,10.9,4.4,10.9,10.5c0,5.7-4.8,10-10.9,10C788.6,49.8,783.8,45.4,783.8,39.7z"/>
		<path class="st0" d="M870.5,118.6c0-36,0-36,0-36c-5.2-4.8-10.5-6.6-15.7-6.6c-9.6,0-17.9,9.2-17.9,25.5
			c0,16.6,6.6,25.9,17.5,25.9C860.5,127.4,865.3,124.8,870.5,118.6z M818.4,101.9c0-25.5,15.7-40.8,32.5-40.8
			c8.7,0,14.4,3.5,20.5,8.7c-0.9-12.7-0.9-12.7-0.9-12.7c0-27.7,0-27.7,0-27.7c17.9,0,17.9,0,17.9,0c0,110.5,0,110.5,0,110.5
			c-14.8,0-14.8,0-14.8,0c-1.3-8.3-1.3-8.3-1.3-8.3c-0.4,0-0.4,0-0.4,0c-5.7,5.7-13.5,10.5-22,10.5
			C830.6,142.2,818.4,127.4,818.4,101.9z"/>
		<path class="st0" d="M954.2,94.5c0-11.8-5.2-19.2-15.7-19.2c-9.2,0-17,7-18.3,19.2H954.2z M902.6,101.9
			c0-25.5,17.5-40.8,35.5-40.8c21,0,32,15.3,32,36.8c0,3.5-0.4,6.6-0.9,8.7c-49.1,0-49.1,0-49.1,0c1.7,13.5,10.5,21.4,22.9,21.4
			c6.6,0,12.2-2.2,17.9-5.7c6.1,11.4,6.1,11.4,6.1,11.4c-7.4,4.8-16.6,8.3-26.3,8.3C919.1,142.2,902.6,127.4,902.6,101.9z"/>
		<path class="st0" d="M983.2,63.3c14.8,0,14.8,0,14.8,0c1.3,13.5,1.3,13.5,1.3,13.5c0.4,0,0.4,0,0.4,0c5.7-10,14-15.7,22-15.7
			c3.9,0,6.6,0.4,8.7,1.7c-3.1,15.7-3.1,15.7-3.1,15.7c-2.6-0.9-4.8-1.3-7.9-1.3c-6.1,0-13.5,3.9-18.3,15.7c0,46.9,0,46.9,0,46.9
			c-17.9,0-17.9,0-17.9,0V63.3H983.2z"/>
	</g>
</g>
</svg>
